<svg width="1080" height="1350" viewBox="0 0 1080 1350" xmlns="http://www.w3.org/2000/svg"><clipPath id="satori_cp-id"><rect x="0" y="0" width="1080" height="1350"/></clipPath><mask id="satori_om-id"><rect x="0" y="0" width="1080" height="1350" fill="#fff"/></mask><rect x="0" y="0" width="1080" height="1350" fill="#f4f4f4"/><mask id="satori_om-id-0"><rect x="80" y="80" width="1080" height="1350" fill="#fff" mask="url(#satori_om-id)"/></mask><clipPath id="satori_cp-id-0-0" clip-path="url(#satori_cp-id)"><rect x="80" y="80" width="1080" height="1350"/></clipPath><mask id="satori_om-id-0-0"><rect x="80" y="80" width="1080" height="1350" fill="#fff" mask="url(#satori_om-id)"/></mask><image x="80" y="80" width="1080" height="1350" href="data:image/svg+xml;utf8,%3Csvg  fill=%22none%22 xmlns=%22http://www.w3.org/2000/svg%22 width=%221080%22 height=%221350%22 viewBox=%220 0 1080 1350%22%3E%3Crect width=%221080%22 height=%221350%22 fill=%22%23f4f4f4%22%3E%3C/rect%3E%3Cdefs%3E%3Cpattern id=%22w3Grid%22 width=%2220%22 height=%2220%22 patternUnits=%22userSpaceOnUse%22%3E%3Cpath d=%22M 20 0 L 0 0 0 20%22 fill=%22none%22 stroke=%22rgba(0,0,0,0.06)%22 stroke-width=%221%22%3E%3C/path%3E%3C/pattern%3E%3Cpattern id=%22w3GridMajor%22 width=%22100%22 height=%22100%22 patternUnits=%22userSpaceOnUse%22%3E%3Crect width=%22100%22 height=%22100%22 fill=%22url(%23w3Grid)%22%3E%3C/rect%3E%3Cpath d=%22M 100 0 L 0 0 0 100%22 fill=%22none%22 stroke=%22rgba(0,0,0,0.1)%22 stroke-width=%221%22%3E%3C/path%3E%3C/pattern%3E%3C/defs%3E%3Crect width=%221080%22 height=%221350%22 fill=%22url(%23w3GridMajor)%22%3E%3C/rect%3E%3C/svg%3E" preserveAspectRatio="none" clip-path="url(#satori_cp-id-0-0)" mask="url(#satori_om-id-0-0)"/><mask id="satori_om-id-0-0-0"><rect x="80" y="80" width="0" height="1350" fill="#fff" mask="url(#satori_om-id)"/></mask><mask id="satori_om-id-0-0-1"><rect x="80" y="80" width="0" height="1350" fill="#fff" mask="url(#satori_om-id)"/></mask><mask id="satori_om-id-0-0-1-0"><rect x="80" y="80" width="0" height="1350" fill="#fff" mask="url(#satori_om-id)"/></mask><mask id="satori_om-id-0-0-1-0-0"><rect x="80" y="80" width="0" height="1350" fill="#fff" mask="url(#satori_om-id)"/></mask><mask id="satori_om-id-0-0-1-1"><rect x="80" y="80" width="0" height="1350" fill="#fff" mask="url(#satori_om-id)"/></mask><mask id="satori_om-id-0-0-1-1-0"><rect x="80" y="80" width="0" height="1350" fill="#fff" mask="url(#satori_om-id)"/></mask><mask id="satori_om-id-0-0-1-1-1"><rect x="80" y="80" width="0" height="1350" fill="#fff" mask="url(#satori_om-id)"/></mask><mask id="satori_om-id-0-0-2"><rect x="80" y="80" width="0" height="1350" fill="#fff" mask="url(#satori_om-id)"/></mask><defs><clipPath id="satori_bc-id-1" clip-path="url(#satori_cp-id)"><path x="100" y="120" width="920" height="1130" d="M130,120 h860 a30,30 0 0 1 30,30 v1070 a30,30 0 0 1 -30,30 h-860 a30,30 0 0 1 -30,-30 v-1070 a30,30 0 0 1 30,-30"/></clipPath></defs><mask id="satori_ms-id-1-1" maskUnits="userSpaceOnUse"><rect x="0" y="0" width="1080" height="1350" fill="#fff"/><path x="100" y="120" width="920" height="1130" fill="#000"  stroke-width="0" d="M130,120 h860 a30,30 0 0 1 30,30 v1070 a30,30 0 0 1 -30,30 h-860 a30,30 0 0 1 -30,-30 v-1070 a30,30 0 0 1 30,-30" clip-path="url(#satori_cp-id)" mask="url(#satori_om-id)"/></mask><defs><filter id="satori_s-id-1-1" x="0%" y="0%" width="100%" height="100%"><feGaussianBlur stdDeviation="0" result="b"/><feFlood flood-color="rgba(0,0,0,0.08)" in="SourceGraphic" result="f"/><feComposite in="f" in2="b" operator="in"/></filter></defs><g mask="url(#satori_ms-id-1-1)" filter="url(#satori_s-id-1-1)" opacity="1"><path x="70" y="150" width="920" height="1130" fill="#fff" stroke="#fff" stroke-width="0" d="M100,150 h860 a30,30 0 0 1 30,30 v1070 a30,30 0 0 1 -30,30 h-860 a30,30 0 0 1 -30,-30 v-1070 a30,30 0 0 1 30,-30" clip-path="url(#satori_cp-id)" mask="url(#satori_om-id)"/></g><mask id="satori_ms-id-1-0" maskUnits="userSpaceOnUse"><rect x="0" y="0" width="1080" height="1350" fill="#fff"/><path x="100" y="120" width="920" height="1130" fill="#000"  stroke-width="0" d="M130,120 h860 a30,30 0 0 1 30,30 v1070 a30,30 0 0 1 -30,30 h-860 a30,30 0 0 1 -30,-30 v-1070 a30,30 0 0 1 30,-30" clip-path="url(#satori_cp-id)" mask="url(#satori_om-id)"/></mask><defs><filter id="satori_s-id-1-0" x="0%" y="0%" width="100%" height="100%"><feGaussianBlur stdDeviation="0" result="b"/><feFlood flood-color="rgba(0,0,0,0.15)" in="SourceGraphic" result="f"/><feComposite in="f" in2="b" operator="in"/></filter></defs><g mask="url(#satori_ms-id-1-0)" filter="url(#satori_s-id-1-0)" opacity="1"><path x="85" y="135" width="920" height="1130" fill="#fff" stroke="#fff" stroke-width="0" d="M115,135 h860 a30,30 0 0 1 30,30 v1070 a30,30 0 0 1 -30,30 h-860 a30,30 0 0 1 -30,-30 v-1070 a30,30 0 0 1 30,-30" clip-path="url(#satori_cp-id)" mask="url(#satori_om-id)"/></g><clipPath id="satori_cp-id-1" clip-path="url(#satori_cp-id)"><path x="100" y="120" width="920" height="1130" d="M130,120 h860 a30,30 0 0 1 30,30 v1070 a30,30 0 0 1 -30,30 h-860 a30,30 0 0 1 -30,-30 v-1070 a30,30 0 0 1 30,-30"/></clipPath><mask id="satori_om-id-1"><rect x="103" y="123" width="914" height="1124" fill="#fff" mask="url(#satori_om-id)"/><path width="920" height="1130" fill="none" stroke="#000" stroke-width="6" d="M108.787,128.787 A30,30 0 0 1 130,120 h860 a30,30 0 0 1 30,30 v1070 a30,30 0 0 1 -30,30 h-860 a30,30 0 0 1 -30,-30 v-1070 A30,30 0 0 1 108.787,128.787"/></mask><path x="100" y="120" width="920" height="1130" fill="#ffffff" d="M130,120 h860 a30,30 0 0 1 30,30 v1070 a30,30 0 0 1 -30,30 h-860 a30,30 0 0 1 -30,-30 v-1070 a30,30 0 0 1 30,-30" clip-path="url(#satori_cp-id)" mask="url(#satori_om-id)"/><path width="920" height="1130" clip-path="url(#satori_bc-id-1)" fill="none" stroke="#000000" stroke-width="6" d="M108.787,128.787 A30,30 0 0 1 130,120 h860 a30,30 0 0 1 30,30 v1070 a30,30 0 0 1 -30,30 h-860 a30,30 0 0 1 -30,-30 v-1070 A30,30 0 0 1 108.787,128.787"/><mask id="satori_om-id-1-0"><rect x="163" y="183" width="794" height="24" fill="#fff" mask="url(#satori_om-id-1)"/></mask><mask id="satori_om-id-1-0-0"><rect x="163" y="183" width="40" height="24" fill="#fff" mask="url(#satori_om-id-1)"/></mask><mask id="satori_om-id-1-0-0-0"><rect x="163" y="183" width="24" height="24" fill="#fff" mask="url(#satori_om-id-1)"/></mask><rect x="163" y="183" width="24" height="24" fill="#000000" clip-path="url(#satori_cp-id-1)" mask="url(#satori_om-id-1)"/><mask id="satori_om-id-1-0-0-1"><rect x="191" y="183" width="12" height="24" fill="#fff" mask="url(#satori_om-id-1)"/></mask><mask id="satori_om-id-1-0-0-1-0"><rect x="191" y="183" width="12" height="10" fill="#fff" mask="url(#satori_om-id-1)"/></mask><rect x="191" y="183" width="12" height="10" fill="#000000" clip-path="url(#satori_cp-id-1)" mask="url(#satori_om-id-1)"/><mask id="satori_om-id-1-0-0-1-1"><rect x="191" y="197" width="12" height="10" fill="#fff" mask="url(#satori_om-id-1)"/></mask><rect x="191" y="197" width="12" height="10" fill="#000000" clip-path="url(#satori_cp-id-1)" mask="url(#satori_om-id-1)"/><mask id="satori_om-id-1-0-1"><rect x="523" y="186" width="73" height="18" fill="#fff" mask="url(#satori_om-id-1)"/></mask><g mask="url(#satori_om-id-1)" clip-path="url(#satori_cp-id-1)"><path fill="#000000" d="M530.1 200L524.3 200L524.3 198.5L526.3 198.5L526.3 191.3L524.3 191.3L524.3 189.8L530.1 189.8L530.1 191.3L528.1 191.3L528.1 198.5L530.1 198.5L530.1 200ZM536.0 200L534.4 200L534.4 189.8L536.5 189.8L539.4 198.0Q539.4 197.6 539.3 197.0Q539.3 196.4 539.2 195.7Q539.2 195.1 539.2 194.6L539.2 194.6L539.2 189.8L540.8 189.8L540.8 200L538.6 200L535.8 191.7Q535.9 192.1 535.9 192.7Q535.9 193.3 536.0 193.9Q536.0 194.5 536.0 195.0L536.0 195.0L536.0 200ZM548.0 200.1L548.0 200.1Q547.0 200.1 546.2 199.8Q545.4 199.4 545.0 198.8Q544.6 198.1 544.6 197.3L544.6 197.3L546.3 197.3Q546.3 197.9 546.8 198.2Q547.3 198.6 548.0 198.6L548.0 198.6Q548.8 198.6 549.2 198.3Q549.7 197.9 549.7 197.3L549.7 197.3Q549.7 196.8 549.4 196.4Q549.0 196.0 548.5 195.9L548.5 195.9L547.3 195.5Q546.1 195.2 545.5 194.4Q544.8 193.6 544.8 192.5L544.8 192.5Q544.8 191.6 545.2 191.0Q545.6 190.3 546.3 190.0Q547.0 189.6 548.0 189.6L548.0 189.6Q549.5 189.6 550.4 190.4Q551.2 191.2 551.2 192.5L551.2 192.5L549.5 192.5Q549.5 191.9 549.1 191.5Q548.7 191.2 548 191.2L548 191.2Q547.3 191.2 546.9 191.5Q546.6 191.8 546.6 192.4L546.6 192.4Q546.6 192.9 546.8 193.3Q547.1 193.7 547.7 193.8L547.7 193.8L548.9 194.2Q550.1 194.5 550.8 195.3Q551.4 196.1 551.4 197.2L551.4 197.2Q551.4 198.1 551.0 198.7Q550.6 199.4 549.8 199.8Q549.0 200.1 548.0 200.1ZM561.3 200L555.5 200L555.5 198.5L557.5 198.5L557.5 191.3L555.5 191.3L555.5 189.8L561.3 189.8L561.3 191.3L559.3 191.3L559.3 198.5L561.3 198.5L561.3 200ZM568.9 200.1L568.9 200.1Q567.9 200.1 567.1 199.8Q566.4 199.4 566.0 198.7Q565.6 198.0 565.6 197.1L565.6 197.1L565.6 192.7Q565.6 191.7 566.0 191.1Q566.4 190.4 567.1 190.0Q567.9 189.6 568.9 189.6L568.9 189.6Q569.8 189.6 570.6 190.0Q571.3 190.4 571.7 191.1Q572.1 191.7 572.1 192.7L572.1 192.7L570.3 192.7Q570.3 191.9 570.0 191.6Q569.6 191.2 568.9 191.2L568.9 191.2Q568.1 191.2 567.7 191.6Q567.4 191.9 567.4 192.7L567.4 192.7L567.4 197.1Q567.4 197.8 567.7 198.2Q568.1 198.6 568.9 198.6L568.9 198.6Q569.6 198.6 570.0 198.2Q570.3 197.8 570.3 197.1L570.3 197.1L570.3 196.1L568.6 196.1L568.6 194.6L572.1 194.6L572.1 197.1Q572.1 198.0 571.7 198.7Q571.3 199.4 570.6 199.8Q569.8 200.1 568.9 200.1ZM577.8 200L576.1 200L576.1 189.8L577.8 189.8L577.8 193.9L580.6 193.9L580.6 189.8L582.3 189.8L582.3 200L580.6 200L580.6 195.5L577.8 195.5L577.8 200ZM590.5 200L588.7 200L588.7 191.4L586.0 191.4L586.0 189.8L593.2 189.8L593.2 191.4L590.5 191.4L590.5 200Z "/></g><mask id="satori_om-id-1-0-2"><rect x="915" y="186" width="42" height="18" fill="#fff" mask="url(#satori_om-id-1)"/></mask><g mask="url(#satori_om-id-1)" clip-path="url(#satori_cp-id-1)"><path fill="#000000" d="M922.5 200L916.1 200L916.1 198.3L919.3 195.1Q920.0 194.4 920.3 193.9Q920.6 193.3 920.6 192.7L920.6 192.7Q920.6 192.0 920.2 191.6Q919.8 191.2 919.2 191.2L919.2 191.2Q918.4 191.2 918.0 191.6Q917.6 192.1 917.6 192.8L917.6 192.8L915.8 192.8Q915.8 191.8 916.3 191.1Q916.7 190.4 917.4 190.0Q918.2 189.6 919.2 189.6L919.2 189.6Q920.2 189.6 920.9 190.0Q921.6 190.4 922.0 191.0Q922.4 191.7 922.4 192.6L922.4 192.6Q922.4 193.5 921.9 194.4Q921.4 195.3 920.3 196.3L920.3 196.3L918.2 198.4L922.5 198.4L922.5 200Z M934.5 201.5L932.6 201.5L937.5 188.4L939.4 188.4L934.5 201.5Z M952.8 200.1L952.8 200.1Q951.4 200.1 950.5 199.4Q949.7 198.7 949.6 197.5L949.6 197.5L951.3 197.5Q951.4 198.0 951.8 198.3Q952.1 198.6 952.8 198.6L952.8 198.6Q953.5 198.6 953.9 198.2Q954.3 197.8 954.3 197.2L954.3 197.2L954.3 196.2Q954.3 195.5 953.9 195.1Q953.5 194.7 952.8 194.7L952.8 194.7Q952.3 194.7 952.0 194.9Q951.7 195.1 951.5 195.4L951.5 195.4L949.8 195.4L949.9 189.8L955.6 189.8L955.6 191.4L951.5 191.4L951.5 194.3L951.5 194.3Q951.7 193.9 952.0 193.7L952.0 193.7Q952.5 193.3 953.4 193.3L953.4 193.3Q954.6 193.3 955.3 194.0Q956.0 194.8 956.0 196.2L956.0 196.2L956.0 197.2Q956.0 198.5 955.2 199.3Q954.3 200.1 952.8 200.1Z "/></g><clipPath id="satori_cp-id-1-1" clip-path="url(#satori_cp-id-1)"><rect x="163" y="247" width="794" height="940"/></clipPath><mask id="satori_om-id-1-1"><rect x="163" y="247" width="794" height="940" fill="#fff" mask="url(#satori_om-id-1)"/></mask><mask id="satori_om-id-1-1-0"><rect x="163" y="247" width="794" height="236" fill="#fff" mask="url(#satori_om-id-1-1)"/></mask><mask id="satori_om-id-1-1-0-0"><rect x="163" y="267" width="794" height="186" fill="#fff" mask="url(#satori_om-id-1-1)"/></mask><mask id="satori_om-id-1-1-0-0-0"><rect x="163" y="267" width="794" height="186" fill="#fff" mask="url(#satori_om-id-1-1)"/></mask><mask id="satori_om-id-1-1-0-0-0-0"><rect x="163" y="267" width="121" height="62" fill="#fff" mask="url(#satori_om-id-1-1)"/></mask><g mask="url(#satori_om-id-1-1)" clip-path="url(#satori_cp-id-1-1)"><path fill="#000000" d="M181.9 317L175.3 317L175.3 285.1L165.4 285.1L165.4 279.0L191.8 279.0L191.8 285.1L181.9 285.1L181.9 317ZM208.9 317.5L208.9 317.5Q205.2 317.5 202.5 316.1Q199.8 314.7 198.3 312.2Q196.8 309.7 196.8 306.3L196.8 306.3L196.8 299.1Q196.8 295.7 198.3 293.2Q199.8 290.7 202.5 289.3Q205.2 287.9 208.9 287.9L208.9 287.9Q212.4 287.9 215.1 289.3Q217.8 290.7 219.3 293.2Q220.8 295.7 220.8 299.1L220.8 299.1L220.8 304.3L203.1 304.3L203.1 306.3Q203.1 309.3 204.6 310.8Q206.0 312.4 208.9 312.4L208.9 312.4Q211.1 312.4 212.4 311.6Q213.8 310.9 214.2 309.4L214.2 309.4L220.6 309.4Q219.8 313.1 216.6 315.3Q213.4 317.5 208.9 317.5ZM203.1 300.2L214.5 300.1L214.5 299.1Q214.5 296.1 213.1 294.5Q211.7 292.9 208.9 292.9Q206.0 292.9 204.6 294.5Q203.1 296.1 203.1 299.1L203.1 299.1L203.1 300.2ZM240.2 317.5L237.9 317.5Q234.6 317.5 232.2 316.4Q229.7 315.4 228.4 313.5Q227.0 311.7 226.9 309.2L226.9 309.2L233.4 309.2Q233.5 310.6 234.7 311.4Q235.9 312.2 237.9 312.2L237.9 312.2L240.2 312.2Q242.6 312.2 243.8 311.3Q245.0 310.3 245.0 308.7L245.0 308.7Q245.0 307.2 243.9 306.4Q242.8 305.5 240.6 305.2L240.6 305.2L237.1 304.7Q232.2 304.1 229.9 302.1Q227.6 300.2 227.6 296.4L227.6 296.4Q227.6 292.4 230.3 290.1Q233.0 287.9 238.3 287.9L238.3 287.9L240.2 287.9Q245.0 287.9 247.9 290.1Q250.8 292.2 251.0 295.8L251.0 295.8L244.5 295.8Q244.3 294.6 243.2 293.9Q242.1 293.2 240.2 293.2L240.2 293.2L238.3 293.2Q236.0 293.2 235.0 294.0Q234.0 294.8 234.0 296.4L234.0 296.4Q234.0 297.8 234.9 298.5Q235.8 299.2 237.8 299.5L237.8 299.5L241.4 300.0Q246.5 300.8 249.0 302.8Q251.4 304.8 251.4 308.7L251.4 308.7Q251.4 312.8 248.5 315.2Q245.7 317.5 240.2 317.5L240.2 317.5ZM280.6 317L272.3 317Q268.2 317 265.9 314.7Q263.6 312.4 263.6 308.4L263.6 308.4L263.6 294.3L255.8 294.3L255.8 288.4L263.6 288.4L263.6 280.3L270.1 280.3L270.1 288.4L281.1 288.4L281.1 294.3L270.1 294.3L270.1 308.4Q270.1 311.1 272.8 311.1L272.8 311.1L280.6 311.1L280.6 317Z "/></g><mask id="satori_om-id-1-1-0-0-0-1"><rect x="284" y="267" width="161" height="62" fill="#fff" mask="url(#satori_om-id-1-1)"/></mask><g mask="url(#satori_om-id-1-1)" clip-path="url(#satori_cp-id-1-1)"><path fill="#000000" d="M304.9 317.4L302.7 317.4Q299.8 317.4 297.6 316.5Q295.5 315.6 294.2 313.9Q292.9 312.3 292.7 310.0L292.7 310.0L297.4 310.0Q297.7 311.5 299.1 312.4Q300.4 313.3 302.7 313.3L302.7 313.3L304.9 313.3Q307.7 313.3 309.0 312.1Q310.4 311.0 310.4 309.1L310.4 309.1Q310.4 307.3 309.1 306.3Q307.9 305.2 305.5 304.8L305.5 304.8L301.7 304.2Q297.5 303.5 295.4 301.6Q293.4 299.7 293.4 296.0L293.4 296.0Q293.4 292.2 295.8 290.1Q298.2 288.0 303.1 288.0L303.1 288.0L305.1 288.0Q309.2 288.0 311.7 289.9Q314.2 291.8 314.7 295.1L314.7 295.1L310.0 295.1Q309.7 293.8 308.5 292.9Q307.2 292.1 305.1 292.1L305.1 292.1L303.1 292.1Q300.5 292.1 299.3 293.1Q298.0 294.1 298.0 296.1L298.0 296.1Q298.0 297.9 299.1 298.7Q300.1 299.5 302.4 299.9L302.4 299.9L306.2 300.5Q310.8 301.2 312.9 303.2Q315.0 305.2 315.0 308.9L315.0 308.9Q315.0 312.9 312.5 315.2Q310.0 317.4 304.9 317.4L304.9 317.4ZM346.8 317L337.7 317Q335.2 317 333.3 316.0Q331.5 315.0 330.4 313.2Q329.4 311.4 329.4 308.9L329.4 308.9L329.4 283.3L319.8 283.3L319.8 279.0L334.1 279.0L334.1 308.9Q334.1 310.7 335.0 311.7Q336.0 312.7 337.7 312.7L337.7 312.7L346.8 312.7L346.8 317ZM377.3 317L352.8 317L352.8 312.7L363.0 312.7L363.0 292.7L354.1 292.7L354.1 288.4L367.6 288.4L367.6 312.7L377.3 312.7L377.3 317ZM364.8 283.3L364.8 283.3Q363.1 283.3 362.1 282.4Q361.1 281.5 361.1 280.0L361.1 280.0Q361.1 278.4 362.1 277.5Q363.1 276.6 364.8 276.6L364.8 276.6Q366.5 276.6 367.5 277.5Q368.5 278.4 368.5 280.0L368.5 280.0Q368.5 281.5 367.5 282.4Q366.5 283.3 364.8 283.3ZM392.5 317.5L392.5 317.5Q388.3 317.5 385.6 314.7Q383.0 311.8 383.0 306.9L383.0 306.9L383.0 298.5Q383.0 293.6 385.6 290.7Q388.2 287.9 392.5 287.9L392.5 287.9Q396.1 287.9 398.2 289.8L398.2 289.8Q400.0 291.4 400.3 293.9L400.3 293.9L400.4 293.9L400.3 287.4L400.3 279.0L405.0 279.0L405.0 317L400.3 317L400.3 311.5L400.3 311.5Q400.0 314.0 398.2 315.6L398.2 315.6Q396.1 317.5 392.5 317.5ZM394.1 313.5L394.1 313.5Q397.0 313.5 398.7 311.6Q400.3 309.8 400.3 306.6L400.3 306.6L400.3 298.8Q400.3 295.6 398.7 293.8Q397.0 291.9 394.1 291.9L394.1 291.9Q391.1 291.9 389.4 293.7Q387.7 295.5 387.7 298.8L387.7 298.8L387.7 306.6Q387.7 309.9 389.4 311.7Q391.1 313.5 394.1 313.5ZM424.4 317.5L424.4 317.5Q421.0 317.5 418.5 316.2Q416.0 314.8 414.6 312.3Q413.2 309.9 413.2 306.6L413.2 306.6L413.2 298.8Q413.2 295.5 414.6 293.0Q416.0 290.6 418.5 289.2Q421.0 287.9 424.4 287.9Q427.8 287.9 430.3 289.2Q432.8 290.6 434.2 293.0Q435.6 295.5 435.6 298.8L435.6 298.8L435.6 303.8L417.8 303.8L417.8 306.6Q417.8 310.0 419.5 311.8Q421.2 313.6 424.4 313.6L424.4 313.6Q427.1 313.6 428.8 312.6Q430.4 311.6 430.8 309.7L430.8 309.7L435.5 309.7Q435.0 313.3 432.0 315.4Q428.9 317.5 424.4 317.5ZM417.8 300.3L431.0 300.3L431.0 298.8Q431.0 295.4 429.3 293.6Q427.6 291.8 424.4 291.8L424.4 291.8Q421.2 291.8 419.5 293.6Q417.8 295.4 417.8 298.8L417.8 298.8L417.8 300.3Z "/></g><mask id="satori_om-id-1-1-0-0-0-2"><rect x="163" y="329" width="794" height="124" fill="#fff" mask="url(#satori_om-id-1-1)"/></mask><g mask="url(#satori_om-id-1-1)" clip-path="url(#satori_cp-id-1-1)"><path fill="#000000" d="M190.0 379L181.7 379Q177.6 379 175.3 376.7Q173.0 374.4 173.0 370.4L173.0 370.4L173.0 356.3L165.2 356.3L165.2 350.4L173.0 350.4L173.0 342.3L179.5 342.3L179.5 350.4L190.5 350.4L190.5 356.3L179.5 356.3L179.5 370.4Q179.5 373.1 182.2 373.1L182.2 373.1L190.0 373.1L190.0 379ZM222.2 379L197.2 379L197.2 373.1L207.1 373.1L207.1 356.3L198.5 356.3L198.5 350.4L213.4 350.4L213.4 373.1L222.2 373.1L222.2 379ZM209.7 345.6L209.7 345.6Q207.8 345.6 206.6 344.6Q205.5 343.6 205.5 341.9L205.5 341.9Q205.5 340.2 206.6 339.1Q207.8 338.1 209.7 338.1L209.7 338.1Q211.7 338.1 212.9 339.1Q214 340.2 214 341.9L214 341.9Q214 343.6 212.9 344.6Q211.7 345.6 209.7 345.6ZM250.4 379L242.1 379Q238.0 379 235.7 376.7Q233.4 374.4 233.4 370.4L233.4 370.4L233.4 356.3L225.6 356.3L225.6 350.4L233.4 350.4L233.4 342.3L239.9 342.3L239.9 350.4L250.9 350.4L250.9 356.3L239.9 356.3L239.9 370.4Q239.9 373.1 242.6 373.1L242.6 373.1L250.4 373.1L250.4 379ZM282.7 379L273.6 379Q270.8 379 268.7 377.9Q266.5 376.7 265.4 374.6Q264.2 372.5 264.2 369.7L264.2 369.7L264.2 346.9L255.0 346.9L255.0 341.0L270.7 341.0L270.7 369.7Q270.7 371.3 271.6 372.2Q272.5 373.1 274.0 373.1L274.0 373.1L282.7 373.1L282.7 379ZM299.5 379.5L299.5 379.5Q295.8 379.5 293.1 378.1Q290.4 376.7 288.9 374.2Q287.4 371.7 287.4 368.3L287.4 368.3L287.4 361.1Q287.4 357.7 288.9 355.2Q290.4 352.7 293.1 351.3Q295.8 349.9 299.5 349.9L299.5 349.9Q303.0 349.9 305.7 351.3Q308.4 352.7 309.9 355.2Q311.4 357.7 311.4 361.1L311.4 361.1L311.4 366.3L293.7 366.3L293.7 368.3Q293.7 371.3 295.2 372.8Q296.6 374.4 299.5 374.4L299.5 374.4Q301.7 374.4 303.0 373.6Q304.4 372.9 304.8 371.4L304.8 371.4L311.2 371.4Q310.4 375.1 307.2 377.3Q304.0 379.5 299.5 379.5ZM293.7 362.2L305.1 362.1L305.1 361.1Q305.1 358.1 303.7 356.5Q302.3 354.9 299.5 354.9Q296.6 354.9 295.2 356.5Q293.7 358.1 293.7 361.1L293.7 361.1L293.7 362.2Z M356.1 379L349.4 379L345.0 350.4L350.4 350.4L352.8 367.9Q353.0 369.4 353.2 371.3Q353.4 373.1 353.5 374.3L353.5 374.3Q353.7 373.1 353.9 371.3Q354.2 369.4 354.4 367.9L354.4 367.9L357.1 350.4L362.1 350.4L364.8 367.9Q365.0 369.4 365.3 371.3Q365.5 373.1 365.7 374.3L365.7 374.3Q365.8 373.1 366.0 371.2Q366.3 369.4 366.4 367.9L366.4 367.9L369.0 350.4L374.2 350.4L369.7 379L363.0 379L360.5 361.4Q360.3 359.9 360.0 358.1Q359.8 356.3 359.6 355.2L359.6 355.2Q359.4 356.3 359.2 358.1Q359.0 359.9 358.7 361.4L358.7 361.4L356.1 379ZM403.2 379L378.2 379L378.2 373.1L388.1 373.1L388.1 356.3L379.5 356.3L379.5 350.4L394.4 350.4L394.4 373.1L403.2 373.1L403.2 379ZM390.7 345.6L390.7 345.6Q388.8 345.6 387.6 344.6Q386.5 343.6 386.5 341.9L386.5 341.9Q386.5 340.2 387.6 339.1Q388.8 338.1 390.7 338.1L390.7 338.1Q392.7 338.1 393.9 339.1Q395 340.2 395 341.9L395 341.9Q395 343.6 393.9 344.6Q392.7 345.6 390.7 345.6ZM431.4 379L423.1 379Q419.0 379 416.7 376.7Q414.4 374.4 414.4 370.4L414.4 370.4L414.4 356.3L406.6 356.3L406.6 350.4L414.4 350.4L414.4 342.3L420.9 342.3L420.9 350.4L431.9 350.4L431.9 356.3L420.9 356.3L420.9 370.4Q420.9 373.1 423.6 373.1L423.6 373.1L431.4 373.1L431.4 379ZM445.1 379L438.6 379L438.6 341.0L445.1 341.0L445.1 350.4L444.9 355.9L445.1 355.9Q445.4 353.4 447.0 351.9L447.0 351.9Q449.1 349.9 452.6 349.9L452.6 349.9Q456.9 349.9 459.4 352.7Q461.9 355.5 461.9 360.2L461.9 360.2L461.9 379L455.4 379L455.4 360.9Q455.4 358.3 454.0 356.9Q452.7 355.5 450.3 355.5L450.3 355.5Q447.9 355.5 446.5 357.0Q445.1 358.4 445.1 361.1L445.1 361.1L445.1 379Z M510.7 379.5L510.7 379.5Q507.0 379.5 504.3 378.1Q501.6 376.7 500.1 374.2Q498.6 371.7 498.6 368.3L498.6 368.3L498.6 361.1Q498.6 357.7 500.1 355.2Q501.6 352.7 504.3 351.3Q507.0 349.9 510.7 349.9L510.7 349.9Q514.2 349.9 516.9 351.3Q519.6 352.7 521.1 355.2Q522.6 357.7 522.6 361.1L522.6 361.1L522.6 366.3L504.9 366.3L504.9 368.3Q504.9 371.3 506.4 372.8Q507.8 374.4 510.7 374.4L510.7 374.4Q512.9 374.4 514.2 373.6Q515.6 372.9 516.0 371.4L516.0 371.4L522.4 371.4Q521.6 375.1 518.4 377.3Q515.2 379.5 510.7 379.5ZM504.9 362.2L516.3 362.1L516.3 361.1Q516.3 358.1 514.9 356.5Q513.5 354.9 510.7 354.9Q507.8 354.9 506.4 356.5Q504.9 358.1 504.9 361.1L504.9 361.1L504.9 362.2ZM535.7 379L529.2 379L529.2 350.4L535.5 350.4L535.5 355.9L535.7 355.9Q536.0 353.4 537.6 351.9L537.6 351.9Q539.7 349.9 543.2 349.9L543.2 349.9Q547.5 349.9 550.0 352.7Q552.5 355.5 552.5 360.2L552.5 360.2L552.5 379L546 379L546 360.9Q546 358.3 544.6 356.9Q543.3 355.5 540.9 355.5L540.9 355.5Q538.5 355.5 537.1 357.0Q535.7 358.4 535.7 361.1L535.7 361.1L535.7 379ZM571.0 379.5L571.0 379.5Q567.4 379.5 564.7 378.1Q562.0 376.7 560.5 374.2Q559.0 371.7 559.0 368.2L559.0 368.2L559.0 361.2Q559.0 357.7 560.5 355.2Q562.0 352.7 564.7 351.3Q567.4 349.9 571.0 349.9L571.0 349.9Q574.7 349.9 577.3 351.3Q580.0 352.7 581.5 355.2Q583.0 357.7 583.0 361.1L583.0 361.1L583.0 368.2Q583.0 371.7 581.5 374.2Q580.0 376.7 577.3 378.1Q574.7 379.5 571.0 379.5ZM571.0 373.8L571.0 373.8Q573.6 373.8 575.0 372.4Q576.5 370.9 576.5 368.2L576.5 368.2L576.5 361.2Q576.5 358.4 575.0 357.0Q573.6 355.6 571.0 355.6L571.0 355.6Q568.5 355.6 567.0 357.0Q565.5 358.4 565.5 361.2L565.5 361.2L565.5 368.2Q565.5 370.9 567.0 372.4Q568.5 373.8 571.0 373.8ZM601.2 379.5L601.2 379.5Q595.7 379.5 592.6 376.5Q589.5 373.4 589.5 368.2L589.5 368.2L589.5 350.4L596.0 350.4L596.0 368.1Q596.0 370.9 597.4 372.4Q598.7 373.9 601.2 373.9L601.2 373.9Q603.6 373.9 605.0 372.4Q606.4 370.9 606.4 368.1L606.4 368.1L606.4 350.4L612.9 350.4L612.9 368.2Q612.9 373.4 609.7 376.5Q606.6 379.5 601.2 379.5ZM632.3 388.4L623.7 388.4L623.7 383.0L632.2 383.0Q634.4 383.0 635.5 381.9Q636.5 380.8 636.5 378.8L636.5 378.8L636.5 376.7L636.7 371.4L636.5 371.4Q636.2 373.9 634.6 375.4L634.6 375.4Q632.5 377.3 629.1 377.3L629.1 377.3Q624.7 377.3 622.1 374.4Q619.5 371.4 619.5 366.4L619.5 366.4L619.5 360.8Q619.5 355.8 622.1 352.8Q624.7 349.9 629.1 349.9L629.1 349.9Q632.5 349.9 634.6 351.8L634.6 351.8Q636.2 353.4 636.5 355.9L636.5 355.9L636.7 355.9L636.5 350.4L643.0 350.4L643.0 379Q643.0 383.3 640.1 385.8Q637.3 388.4 632.3 388.4L632.3 388.4ZM631.2 371.7L631.2 371.7Q633.7 371.7 635.1 370.2Q636.5 368.8 636.5 366.1L636.5 366.1L636.5 361.1Q636.5 358.5 635.1 357.0Q633.7 355.5 631.2 355.5Q628.7 355.5 627.4 357.0Q626.0 358.4 626.0 361.1L626.0 361.1L626.0 366.1Q626.0 368.8 627.4 370.3Q628.7 371.7 631.2 371.7ZM656.5 379L650.0 379L650.0 341.0L656.5 341.0L656.5 350.4L656.3 355.9L656.5 355.9Q656.8 353.4 658.4 351.9L658.4 351.9Q660.5 349.9 664.0 349.9L664.0 349.9Q668.3 349.9 670.8 352.7Q673.3 355.5 673.3 360.2L673.3 360.2L673.3 379L666.8 379L666.8 360.9Q666.8 358.3 665.4 356.9Q664.1 355.5 661.7 355.5L661.7 355.5Q659.3 355.5 657.9 357.0Q656.5 358.4 656.5 361.1L656.5 361.1L656.5 379Z M734.0 379L725.7 379Q721.6 379 719.3 376.7Q717.0 374.4 717.0 370.4L717.0 370.4L717.0 356.3L709.2 356.3L709.2 350.4L717.0 350.4L717.0 342.3L723.5 342.3L723.5 350.4L734.5 350.4L734.5 356.3L723.5 356.3L723.5 370.4Q723.5 373.1 726.2 373.1L726.2 373.1L734.0 373.1L734.0 379ZM752.9 379.5L752.9 379.5Q749.2 379.5 746.5 378.1Q743.8 376.7 742.3 374.2Q740.8 371.7 740.8 368.3L740.8 368.3L740.8 361.1Q740.8 357.7 742.3 355.2Q743.8 352.7 746.5 351.3Q749.2 349.9 752.9 349.9L752.9 349.9Q756.4 349.9 759.1 351.3Q761.8 352.7 763.3 355.2Q764.8 357.7 764.8 361.1L764.8 361.1L764.8 366.3L747.1 366.3L747.1 368.3Q747.1 371.3 748.6 372.8Q750.0 374.4 752.9 374.4L752.9 374.4Q755.1 374.4 756.4 373.6Q757.8 372.9 758.2 371.4L758.2 371.4L764.6 371.4Q763.8 375.1 760.6 377.3Q757.4 379.5 752.9 379.5ZM747.1 362.2L758.5 362.1L758.5 361.1Q758.5 358.1 757.1 356.5Q755.7 354.9 752.9 354.9Q750.0 354.9 748.6 356.5Q747.1 358.1 747.1 361.1L747.1 361.1L747.1 362.2ZM776.6 379L769.3 379L779.3 364.2L769.9 350.4L777.3 350.4L781.7 357.4Q782.1 358.0 782.5 358.8Q782.8 359.6 783.0 360.1L783.0 360.1Q783.2 359.6 783.6 358.8Q783.9 358.0 784.3 357.4L784.3 357.4L788.8 350.4L796.1 350.4L786.8 364.2L796.7 379L789.3 379L784.4 371.1Q784.0 370.5 783.6 369.7Q783.3 368.9 783.0 368.4L783.0 368.4Q782.8 368.9 782.4 369.7Q782.1 370.5 781.6 371.1L781.6 371.1L776.6 379ZM824.6 379L816.3 379Q812.2 379 809.9 376.7Q807.6 374.4 807.6 370.4L807.6 370.4L807.6 356.3L799.8 356.3L799.8 350.4L807.6 350.4L807.6 342.3L814.1 342.3L814.1 350.4L825.1 350.4L825.1 356.3L814.1 356.3L814.1 370.4Q814.1 373.1 816.8 373.1L816.8 373.1L824.6 373.1L824.6 379Z M885.0 379L876.7 379Q872.6 379 870.3 376.7Q868.0 374.4 868.0 370.4L868.0 370.4L868.0 356.3L860.2 356.3L860.2 350.4L868.0 350.4L868.0 342.3L874.5 342.3L874.5 350.4L885.5 350.4L885.5 356.3L874.5 356.3L874.5 370.4Q874.5 373.1 877.2 373.1L877.2 373.1L885.0 373.1L885.0 379ZM903.8 379.5L903.8 379.5Q900.2 379.5 897.5 378.1Q894.8 376.7 893.3 374.2Q891.8 371.7 891.8 368.2L891.8 368.2L891.8 361.2Q891.8 357.7 893.3 355.2Q894.8 352.7 897.5 351.3Q900.2 349.9 903.8 349.9L903.8 349.9Q907.5 349.9 910.1 351.3Q912.8 352.7 914.3 355.2Q915.8 357.7 915.8 361.1L915.8 361.1L915.8 368.2Q915.8 371.7 914.3 374.2Q912.8 376.7 910.1 378.1Q907.5 379.5 903.8 379.5ZM903.8 373.8L903.8 373.8Q906.4 373.8 907.8 372.4Q909.3 370.9 909.3 368.2L909.3 368.2L909.3 361.2Q909.3 358.4 907.8 357.0Q906.4 355.6 903.8 355.6L903.8 355.6Q901.3 355.6 899.8 357.0Q898.3 358.4 898.3 361.2L898.3 361.2L898.3 368.2Q898.3 370.9 899.8 372.4Q901.3 373.8 903.8 373.8Z M175.1 441L168.4 441L164.0 412.4L169.4 412.4L171.8 429.9Q172.0 431.4 172.2 433.3Q172.4 435.1 172.5 436.3L172.5 436.3Q172.7 435.1 172.9 433.3Q173.2 431.4 173.4 429.9L173.4 429.9L176.1 412.4L181.1 412.4L183.8 429.9Q184.0 431.4 184.3 433.3Q184.5 435.1 184.7 436.3L184.7 436.3Q184.8 435.1 185.0 433.2Q185.3 431.4 185.4 429.9L185.4 429.9L188.0 412.4L193.2 412.4L188.7 441L182.0 441L179.5 423.4Q179.3 421.9 179.0 420.1Q178.8 418.3 178.6 417.2L178.6 417.2Q178.4 418.3 178.2 420.1Q178.0 421.9 177.7 423.4L177.7 423.4L175.1 441ZM204.6 441L198.1 441L198.1 412.4L204.2 412.4L204.2 417.9L204.2 417.9Q204.7 415.6 206.0 414.2L206.0 414.2Q208.1 411.9 212.1 411.9L212.1 411.9Q216.8 411.9 219.4 414.7Q222.1 417.6 222.1 422.6L222.1 422.6L222.1 424.7L215.2 424.7L215.2 423.1Q215.2 420.4 213.8 418.8Q212.4 417.3 209.9 417.3L209.9 417.3Q207.3 417.3 206.0 418.8Q204.6 420.4 204.6 423.1L204.6 423.1L204.6 441ZM235.8 441.5L235.8 441.5Q231.4 441.5 228.9 439.2Q226.3 436.8 226.3 432.9L226.3 432.9Q226.3 428.7 229.1 426.4Q231.9 424.1 237.1 424.1L237.1 424.1L244.2 424.1L244.2 421.7Q244.2 419.6 242.8 418.4Q241.5 417.2 239.2 417.2L239.2 417.2Q237.0 417.2 235.6 418.2Q234.2 419.1 234.0 420.7L234.0 420.7L227.6 420.7Q228.1 416.7 231.3 414.3Q234.4 411.9 239.4 411.9L239.4 411.9Q244.6 411.9 247.7 414.5Q250.7 417.1 250.7 421.6L250.7 421.6L250.7 441L244.4 441L244.4 436.0L244.3 436.0Q243.9 438.2 242.1 439.6L242.1 439.6Q239.7 441.5 235.8 441.5ZM238.0 436.6L238.0 436.6Q240.7 436.6 242.5 435.2Q244.2 433.8 244.2 431.6L244.2 431.6L244.2 428.1L237.2 428.1Q235.2 428.1 234.0 429.2Q232.8 430.4 232.8 432.3L232.8 432.3Q232.8 434.3 234.2 435.5Q235.6 436.6 238.0 436.6ZM264.1 450.4L257.6 450.4L257.6 412.4L263.9 412.4L263.9 417.9L264.1 417.9Q264.4 415.4 266.0 413.9L266.0 413.9Q268.1 411.9 271.6 411.9L271.6 411.9Q276.0 411.9 278.6 414.8Q281.2 417.8 281.2 422.8L281.2 422.8L281.2 430.5Q281.2 433.9 280.0 436.3Q278.8 438.8 276.7 440.2Q274.6 441.5 271.6 441.5L271.6 441.5Q268.1 441.5 266.0 439.5L266.0 439.5Q264.4 438.0 264.1 435.5L264.1 435.5L263.9 435.5L264.1 442.4L264.1 450.4ZM269.4 435.9L269.4 435.9Q271.9 435.9 273.3 434.4Q274.7 433.0 274.7 430.3L274.7 430.3L274.7 423.1Q274.7 420.4 273.3 419.0Q271.9 417.5 269.4 417.5L269.4 417.5Q266.9 417.5 265.5 419.0Q264.1 420.5 264.1 423.1L264.1 423.1L264.1 430.3Q264.1 432.9 265.5 434.4Q266.9 435.9 269.4 435.9Z "/></g><mask id="satori_om-id-1-1-0-1"><rect x="163" y="483" width="794" height="0" fill="#fff" mask="url(#satori_om-id-1-1)"/></mask><clipPath id="satori_cp-id-1-1-0-1-0" clip-path="url(#satori_cp-id-1-1)"><rect x="163" y="483" width="794" height="0"/></clipPath><mask id="satori_om-id-1-1-0-1-0"><rect x="163" y="483" width="794" height="0" fill="#fff" mask="url(#satori_om-id-1-1)"/></mask><defs><clipPath id="satori_bc-id-1-1-0-1-0-0" clip-path="url(#satori_cp-id-1-1-0-1-0)"><rect x="163" y="483" width="794" height="46"/></clipPath></defs><clipPath id="satori_cp-id-1-1-0-1-0-0" clip-path="url(#satori_cp-id-1-1-0-1-0)"><rect x="163" y="483" width="794" height="46"/></clipPath><mask id="satori_om-id-1-1-0-1-0-0"><rect x="166" y="486" width="788" height="40" fill="#fff" mask="url(#satori_om-id-1-1-0-1-0)"/><path width="794" height="46" fill="none" stroke="#000" stroke-width="6" d="M163,483 A0,0 0 0 1 163,483 h794 a0,0 0 0 1 0,0 v46 a0,0 0 0 1 0,0 h-794 a0,0 0 0 1 0,0 v-46 A0,0 0 0 1 163,483"/></mask><rect x="163" y="483" width="794" height="46" fill="#ffffff" clip-path="url(#satori_cp-id-1-1-0-1-0)" mask="url(#satori_om-id-1-1-0-1-0)"/><path width="794" height="46" clip-path="url(#satori_bc-id-1-1-0-1-0-0)" fill="none" stroke="#000000" stroke-width="6" d="M163,483 A0,0 0 0 1 163,483 h794 a0,0 0 0 1 0,0 v46 a0,0 0 0 1 0,0 h-794 a0,0 0 0 1 0,0 v-46 A0,0 0 0 1 163,483"/><mask id="satori_om-id-1-1-0-1-0-1"><rect x="163" y="549" width="794" height="0" fill="#fff" mask="url(#satori_om-id-1-1-0-1-0)"/></mask><mask id="satori_om-id-1-1-0-1-0-1-0"><rect x="163" y="549" width="794" height="0" fill="#fff" mask="url(#satori_om-id-1-1-0-1-0)"/></mask><mask id="satori_om-id-1-1-0-1-0-1-0-0"><rect x="163" y="551" width="778" height="29" fill="#fff" mask="url(#satori_om-id-1-1-0-1-0)"/></mask><g mask="url(#satori_om-id-1-1-0-1-0)" clip-path="url(#satori_cp-id-1-1-0-1-0)"><path fill="#000000" d="M174.5 567.1L164.7 571.8L164.7 569.2L171.1 566.3Q171.5 566.1 171.9 565.9Q172.3 565.8 172.6 565.8L172.6 565.8Q172.3 565.7 171.9 565.6Q171.5 565.5 171.1 565.3L171.1 565.3L164.7 562.3L164.7 559.7L174.5 564.4L174.5 567.1Z "/></g><mask id="satori_om-id-1-1-0-1-0-1-0-1"><rect x="957" y="549" width="794" height="0" fill="#fff" mask="url(#satori_om-id-1-1-0-1-0)"/></mask><mask id="satori_om-id-1-1-0-1-0-1-0-1-0"><rect x="957" y="549" width="794" height="0" fill="#fff" mask="url(#satori_om-id-1-1-0-1-0)"/></mask><mask id="satori_om-id-1-1-0-1-0-1-0-1-0-0"><rect x="957" y="549" width="794" height="34" fill="#fff" mask="url(#satori_om-id-1-1-0-1-0)"/></mask><g mask="url(#satori_om-id-1-1-0-1-0)" clip-path="url(#satori_cp-id-1-1-0-1-0)"><path fill="#333333" d="M964.6 574L959.2 574L959.2 556.5L964.2 556.5Q966.6 556.5 968.0 557.7Q969.3 558.9 969.3 561.0L969.3 561.0Q969.3 562.2 968.8 563.1Q968.3 564.0 967.4 564.5L967.4 564.5Q967.1 564.6 966.7 564.7L966.7 564.7Q967.2 564.9 967.6 565.1L967.6 565.1Q968.6 565.6 969.2 566.7Q969.7 567.7 969.7 569.1L969.7 569.1Q969.7 570.6 969.1 571.7Q968.5 572.8 967.3 573.4Q966.2 574 964.6 574L964.6 574ZM961.3 565.8L961.3 572.1L964.3 572.1Q965.8 572.1 966.7 571.3Q967.6 570.4 967.6 569.1L967.6 569.1Q967.6 567.6 966.7 566.7Q965.8 565.8 964.3 565.8L964.3 565.8L961.3 565.8ZM961.3 558.4L961.3 563.9L964.2 563.9Q965.6 563.9 966.4 563.2Q967.2 562.5 967.2 561.2Q967.2 559.9 966.4 559.2Q965.6 558.4 964.2 558.4L964.2 558.4L961.3 558.4ZM978.6 574.2L978.6 574.2Q976.3 574.2 974.9 572.9Q973.6 571.5 973.6 569.2L973.6 569.2L973.6 560.8L975.7 560.8L975.7 569.2Q975.7 570.7 976.5 571.5Q977.3 572.3 978.6 572.3L978.6 572.3Q979.9 572.3 980.7 571.5Q981.5 570.7 981.5 569.2L981.5 569.2L981.5 560.8L983.6 560.8L983.6 569.2Q983.6 571.5 982.2 572.9Q980.9 574.2 978.6 574.2ZM999 574L994.8 574Q993.6 574 992.8 573.5Q991.9 573.1 991.4 572.2Q991.0 571.4 991.0 570.3L991.0 570.3L991.0 558.4L986.5 558.4L986.5 556.5L993.1 556.5L993.1 570.3Q993.1 571.1 993.6 571.6Q994.0 572.0 994.8 572.0L994.8 572.0L999 572.0L999 574ZM1013.4 574L1009.2 574Q1008.0 574 1007.2 573.5Q1006.3 573.1 1005.8 572.2Q1005.4 571.4 1005.4 570.3L1005.4 570.3L1005.4 558.4L1000.9 558.4L1000.9 556.5L1007.5 556.5L1007.5 570.3Q1007.5 571.1 1008.0 571.6Q1008.4 572.0 1009.2 572.0L1009.2 572.0L1013.4 572.0L1013.4 574ZM1021.8 574.2L1021.8 574.2Q1020.2 574.2 1019.1 573.6Q1017.9 573.0 1017.3 571.9Q1016.6 570.7 1016.6 569.2L1016.6 569.2L1016.6 565.6Q1016.6 564.1 1017.3 562.9Q1017.9 561.8 1019.1 561.2Q1020.2 560.6 1021.8 560.6Q1023.4 560.6 1024.5 561.2Q1025.7 561.8 1026.3 562.9Q1027.0 564.1 1027.0 565.6L1027.0 565.6L1027.0 567.9L1018.8 567.9L1018.8 569.2Q1018.8 570.8 1019.5 571.6Q1020.3 572.4 1021.8 572.4L1021.8 572.4Q1023.0 572.4 1023.8 572.0Q1024.6 571.5 1024.8 570.6L1024.8 570.6L1026.9 570.6Q1026.7 572.3 1025.3 573.3Q1023.9 574.2 1021.8 574.2ZM1018.8 566.3L1024.8 566.3L1024.8 565.6Q1024.8 564.0 1024.1 563.2Q1023.3 562.4 1021.8 562.4L1021.8 562.4Q1020.3 562.4 1019.5 563.2Q1018.8 564.0 1018.8 565.6L1018.8 565.6L1018.8 566.3ZM1041.2 574L1037.6 574Q1035.9 574 1035.0 573.1Q1034.0 572.2 1034.0 570.5L1034.0 570.5L1034.0 562.8L1030.3 562.8L1030.3 560.8L1034.0 560.8L1034.0 557.1L1036.2 557.1L1036.2 560.8L1041.5 560.8L1041.5 562.8L1036.2 562.8L1036.2 570.5Q1036.2 572.0 1037.6 572.0L1037.6 572.0L1041.2 572.0L1041.2 574Z M1065 574.2L1065 574.2Q1063.4 574.2 1062.3 573.6Q1061.1 573.0 1060.5 571.9Q1059.8 570.7 1059.8 569.2L1059.8 569.2L1059.8 565.6Q1059.8 564.1 1060.5 562.9Q1061.1 561.8 1062.3 561.2Q1063.4 560.6 1065 560.6L1065 560.6Q1066.6 560.6 1067.7 561.2Q1068.9 561.8 1069.5 562.9Q1070.2 564.1 1070.2 565.6L1070.2 565.6L1070.2 569.2Q1070.2 570.7 1069.5 571.9Q1068.9 573.0 1067.7 573.6Q1066.6 574.2 1065 574.2ZM1065 572.3L1065 572.3Q1066.4 572.3 1067.2 571.5Q1068 570.7 1068 569.2L1068 569.2L1068 565.6Q1068 564.1 1067.2 563.3Q1066.4 562.5 1065 562.5L1065 562.5Q1063.6 562.5 1062.8 563.3Q1062 564.1 1062 565.6L1062 565.6L1062 569.2Q1062 570.7 1062.8 571.5Q1063.6 572.3 1065 572.3ZM1076.6 574L1074.4 574L1074.4 560.8L1076.6 560.8L1076.6 563.3L1076.6 563.3Q1076.7 562.1 1077.5 561.4L1077.5 561.4Q1078.4 560.6 1080.1 560.6L1080.1 560.6Q1082.1 560.6 1083.3 561.8Q1084.4 563.0 1084.4 565.1L1084.4 565.1L1084.4 574L1082.3 574L1082.3 565.4Q1082.3 563.9 1081.5 563.2Q1080.8 562.4 1079.5 562.4L1079.5 562.4Q1078.1 562.4 1077.3 563.2Q1076.6 564.1 1076.6 565.6L1076.6 565.6L1076.6 574ZM1093.8 574.2L1093.8 574.2Q1092.2 574.2 1091.1 573.6Q1089.9 573.0 1089.3 571.9Q1088.6 570.7 1088.6 569.2L1088.6 569.2L1088.6 565.6Q1088.6 564.1 1089.3 562.9Q1089.9 561.8 1091.1 561.2Q1092.2 560.6 1093.8 560.6Q1095.4 560.6 1096.5 561.2Q1097.7 561.8 1098.3 562.9Q1099.0 564.1 1099.0 565.6L1099.0 565.6L1099.0 567.9L1090.8 567.9L1090.8 569.2Q1090.8 570.8 1091.5 571.6Q1092.3 572.4 1093.8 572.4L1093.8 572.4Q1095.0 572.4 1095.8 572.0Q1096.6 571.5 1096.8 570.6L1096.8 570.6L1098.9 570.6Q1098.7 572.3 1097.3 573.3Q1095.9 574.2 1093.8 574.2ZM1090.8 566.3L1096.8 566.3L1096.8 565.6Q1096.8 564.0 1096.1 563.2Q1095.3 562.4 1093.8 562.4L1093.8 562.4Q1092.3 562.4 1091.5 563.2Q1090.8 564.0 1090.8 565.6L1090.8 565.6L1090.8 566.3Z "/></g><mask id="satori_om-id-1-1-0-1-0-1-1"><rect x="163" y="565" width="794" height="0" fill="#fff" mask="url(#satori_om-id-1-1-0-1-0)"/></mask><mask id="satori_om-id-1-1-0-1-0-1-1-0"><rect x="163" y="567" width="778" height="29" fill="#fff" mask="url(#satori_om-id-1-1-0-1-0)"/></mask><g mask="url(#satori_om-id-1-1-0-1-0)" clip-path="url(#satori_cp-id-1-1-0-1-0)"><path fill="#000000" d="M174.5 583.1L164.7 587.8L164.7 585.2L171.1 582.3Q171.5 582.1 171.9 581.9Q172.3 581.8 172.6 581.8L172.6 581.8Q172.3 581.7 171.9 581.6Q171.5 581.5 171.1 581.3L171.1 581.3L164.7 578.3L164.7 575.7L174.5 580.4L174.5 583.1Z "/></g><mask id="satori_om-id-1-1-0-1-0-1-1-1"><rect x="957" y="565" width="794" height="0" fill="#fff" mask="url(#satori_om-id-1-1-0-1-0)"/></mask><mask id="satori_om-id-1-1-0-1-0-1-1-1-0"><rect x="957" y="565" width="794" height="0" fill="#fff" mask="url(#satori_om-id-1-1-0-1-0)"/></mask><mask id="satori_om-id-1-1-0-1-0-1-1-1-0-0"><rect x="957" y="565" width="794" height="34" fill="#fff" mask="url(#satori_om-id-1-1-0-1-0)"/></mask><g mask="url(#satori_om-id-1-1-0-1-0)" clip-path="url(#satori_cp-id-1-1-0-1-0)"><path fill="#333333" d="M964.6 590L959.2 590L959.2 572.5L964.2 572.5Q966.6 572.5 968.0 573.7Q969.3 574.9 969.3 577.0L969.3 577.0Q969.3 578.2 968.8 579.1Q968.3 580.0 967.4 580.5L967.4 580.5Q967.1 580.6 966.7 580.7L966.7 580.7Q967.2 580.9 967.6 581.1L967.6 581.1Q968.6 581.6 969.2 582.7Q969.7 583.7 969.7 585.1L969.7 585.1Q969.7 586.6 969.1 587.7Q968.5 588.8 967.3 589.4Q966.2 590 964.6 590L964.6 590ZM961.3 581.8L961.3 588.1L964.3 588.1Q965.8 588.1 966.7 587.3Q967.6 586.4 967.6 585.1L967.6 585.1Q967.6 583.6 966.7 582.7Q965.8 581.8 964.3 581.8L964.3 581.8L961.3 581.8ZM961.3 574.4L961.3 579.9L964.2 579.9Q965.6 579.9 966.4 579.2Q967.2 578.5 967.2 577.2Q967.2 575.9 966.4 575.2Q965.6 574.4 964.2 574.4L964.2 574.4L961.3 574.4ZM978.6 590.2L978.6 590.2Q976.3 590.2 974.9 588.9Q973.6 587.5 973.6 585.2L973.6 585.2L973.6 576.8L975.7 576.8L975.7 585.2Q975.7 586.7 976.5 587.5Q977.3 588.3 978.6 588.3L978.6 588.3Q979.9 588.3 980.7 587.5Q981.5 586.7 981.5 585.2L981.5 585.2L981.5 576.8L983.6 576.8L983.6 585.2Q983.6 587.5 982.2 588.9Q980.9 590.2 978.6 590.2ZM999 590L994.8 590Q993.6 590 992.8 589.5Q991.9 589.1 991.4 588.2Q991.0 587.4 991.0 586.3L991.0 586.3L991.0 574.4L986.5 574.4L986.5 572.5L993.1 572.5L993.1 586.3Q993.1 587.1 993.6 587.6Q994.0 588.0 994.8 588.0L994.8 588.0L999 588.0L999 590ZM1013.4 590L1009.2 590Q1008.0 590 1007.2 589.5Q1006.3 589.1 1005.8 588.2Q1005.4 587.4 1005.4 586.3L1005.4 586.3L1005.4 574.4L1000.9 574.4L1000.9 572.5L1007.5 572.5L1007.5 586.3Q1007.5 587.1 1008.0 587.6Q1008.4 588.0 1009.2 588.0L1009.2 588.0L1013.4 588.0L1013.4 590ZM1021.8 590.2L1021.8 590.2Q1020.2 590.2 1019.1 589.6Q1017.9 589.0 1017.3 587.9Q1016.6 586.7 1016.6 585.2L1016.6 585.2L1016.6 581.6Q1016.6 580.1 1017.3 578.9Q1017.9 577.8 1019.1 577.2Q1020.2 576.6 1021.8 576.6Q1023.4 576.6 1024.5 577.2Q1025.7 577.8 1026.3 578.9Q1027.0 580.1 1027.0 581.6L1027.0 581.6L1027.0 583.9L1018.8 583.9L1018.8 585.2Q1018.8 586.8 1019.5 587.6Q1020.3 588.4 1021.8 588.4L1021.8 588.4Q1023.0 588.4 1023.8 588.0Q1024.6 587.5 1024.8 586.6L1024.8 586.6L1026.9 586.6Q1026.7 588.3 1025.3 589.3Q1023.9 590.2 1021.8 590.2ZM1018.8 582.3L1024.8 582.3L1024.8 581.6Q1024.8 580.0 1024.1 579.2Q1023.3 578.4 1021.8 578.4L1021.8 578.4Q1020.3 578.4 1019.5 579.2Q1018.8 580.0 1018.8 581.6L1018.8 581.6L1018.8 582.3ZM1041.2 590L1037.6 590Q1035.9 590 1035.0 589.1Q1034.0 588.2 1034.0 586.5L1034.0 586.5L1034.0 578.8L1030.3 578.8L1030.3 576.8L1034.0 576.8L1034.0 573.1L1036.2 573.1L1036.2 576.8L1041.5 576.8L1041.5 578.8L1036.2 578.8L1036.2 586.5Q1036.2 588.0 1037.6 588.0L1037.6 588.0L1041.2 588.0L1041.2 590Z M1070.0 590L1066.4 590Q1064.7 590 1063.8 589.1Q1062.8 588.2 1062.8 586.5L1062.8 586.5L1062.8 578.8L1059.1 578.8L1059.1 576.8L1062.8 576.8L1062.8 573.1L1065 573.1L1065 576.8L1070.3 576.8L1070.3 578.8L1065 578.8L1065 586.5Q1065 588.0 1066.4 588.0L1066.4 588.0L1070.0 588.0L1070.0 590ZM1077.5 590L1075.2 590L1073.0 576.8L1075.0 576.8L1076.3 586.2Q1076.4 586.7 1076.4 587.3Q1076.5 587.9 1076.6 588.3L1076.6 588.3Q1076.6 587.9 1076.7 587.3Q1076.8 586.7 1076.9 586.2L1076.9 586.2L1078.4 576.8L1080.4 576.8L1081.9 586.2Q1082.0 586.7 1082.1 587.3Q1082.2 587.9 1082.2 588.3L1082.2 588.3Q1082.3 587.9 1082.4 587.3Q1082.5 586.7 1082.6 586.2L1082.6 586.2L1083.9 576.8L1085.8 576.8L1083.6 590L1081.2 590L1079.8 580.9Q1079.7 580.2 1079.5 579.5Q1079.4 578.9 1079.4 578.5L1079.4 578.5Q1079.3 578.9 1079.2 579.5Q1079.1 580.2 1079.0 580.9L1079.0 580.9L1077.5 590ZM1093.8 590.2L1093.8 590.2Q1092.2 590.2 1091.1 589.6Q1089.9 589.0 1089.3 587.9Q1088.6 586.7 1088.6 585.2L1088.6 585.2L1088.6 581.6Q1088.6 580.1 1089.3 578.9Q1089.9 577.8 1091.1 577.2Q1092.2 576.6 1093.8 576.6L1093.8 576.6Q1095.4 576.6 1096.5 577.2Q1097.7 577.8 1098.3 578.9Q1099.0 580.1 1099.0 581.6L1099.0 581.6L1099.0 585.2Q1099.0 586.7 1098.3 587.9Q1097.7 589.0 1096.5 589.6Q1095.4 590.2 1093.8 590.2ZM1093.8 588.3L1093.8 588.3Q1095.2 588.3 1096.0 587.5Q1096.8 586.7 1096.8 585.2L1096.8 585.2L1096.8 581.6Q1096.8 580.1 1096.0 579.3Q1095.2 578.5 1093.8 578.5L1093.8 578.5Q1092.4 578.5 1091.6 579.3Q1090.8 580.1 1090.8 581.6L1090.8 581.6L1090.8 585.2Q1090.8 586.7 1091.6 587.5Q1092.4 588.3 1093.8 588.3Z "/></g><mask id="satori_om-id-1-1-0-1-0-1-2"><rect x="163" y="581" width="794" height="0" fill="#fff" mask="url(#satori_om-id-1-1-0-1-0)"/></mask><mask id="satori_om-id-1-1-0-1-0-1-2-0"><rect x="163" y="583" width="778" height="29" fill="#fff" mask="url(#satori_om-id-1-1-0-1-0)"/></mask><g mask="url(#satori_om-id-1-1-0-1-0)" clip-path="url(#satori_cp-id-1-1-0-1-0)"><path fill="#000000" d="M174.5 599.1L164.7 603.8L164.7 601.2L171.1 598.3Q171.5 598.1 171.9 597.9Q172.3 597.8 172.6 597.8L172.6 597.8Q172.3 597.7 171.9 597.6Q171.5 597.5 171.1 597.3L171.1 597.3L164.7 594.3L164.7 591.7L174.5 596.4L174.5 599.1Z "/></g><mask id="satori_om-id-1-1-0-1-0-1-2-1"><rect x="957" y="581" width="794" height="0" fill="#fff" mask="url(#satori_om-id-1-1-0-1-0)"/></mask><mask id="satori_om-id-1-1-0-1-0-1-2-1-0"><rect x="957" y="581" width="794" height="0" fill="#fff" mask="url(#satori_om-id-1-1-0-1-0)"/></mask><mask id="satori_om-id-1-1-0-1-0-1-2-1-0-0"><rect x="957" y="581" width="794" height="34" fill="#fff" mask="url(#satori_om-id-1-1-0-1-0)"/></mask><g mask="url(#satori_om-id-1-1-0-1-0)" clip-path="url(#satori_cp-id-1-1-0-1-0)"><path fill="#333333" d="M964.6 606L959.2 606L959.2 588.5L964.2 588.5Q966.6 588.5 968.0 589.7Q969.3 590.9 969.3 593.0L969.3 593.0Q969.3 594.2 968.8 595.1Q968.3 596.0 967.4 596.5L967.4 596.5Q967.1 596.6 966.7 596.7L966.7 596.7Q967.2 596.9 967.6 597.1L967.6 597.1Q968.6 597.6 969.2 598.7Q969.7 599.7 969.7 601.1L969.7 601.1Q969.7 602.6 969.1 603.7Q968.5 604.8 967.3 605.4Q966.2 606 964.6 606L964.6 606ZM961.3 597.8L961.3 604.1L964.3 604.1Q965.8 604.1 966.7 603.3Q967.6 602.4 967.6 601.1L967.6 601.1Q967.6 599.6 966.7 598.7Q965.8 597.8 964.3 597.8L964.3 597.8L961.3 597.8ZM961.3 590.4L961.3 595.9L964.2 595.9Q965.6 595.9 966.4 595.2Q967.2 594.5 967.2 593.2Q967.2 591.9 966.4 591.2Q965.6 590.4 964.2 590.4L964.2 590.4L961.3 590.4ZM978.6 606.2L978.6 606.2Q976.3 606.2 974.9 604.9Q973.6 603.5 973.6 601.2L973.6 601.2L973.6 592.8L975.7 592.8L975.7 601.2Q975.7 602.7 976.5 603.5Q977.3 604.3 978.6 604.3L978.6 604.3Q979.9 604.3 980.7 603.5Q981.5 602.7 981.5 601.2L981.5 601.2L981.5 592.8L983.6 592.8L983.6 601.2Q983.6 603.5 982.2 604.9Q980.9 606.2 978.6 606.2ZM999 606L994.8 606Q993.6 606 992.8 605.5Q991.9 605.1 991.4 604.2Q991.0 603.4 991.0 602.3L991.0 602.3L991.0 590.4L986.5 590.4L986.5 588.5L993.1 588.5L993.1 602.3Q993.1 603.1 993.6 603.6Q994.0 604.0 994.8 604.0L994.8 604.0L999 604.0L999 606ZM1013.4 606L1009.2 606Q1008.0 606 1007.2 605.5Q1006.3 605.1 1005.8 604.2Q1005.4 603.4 1005.4 602.3L1005.4 602.3L1005.4 590.4L1000.9 590.4L1000.9 588.5L1007.5 588.5L1007.5 602.3Q1007.5 603.1 1008.0 603.6Q1008.4 604.0 1009.2 604.0L1009.2 604.0L1013.4 604.0L1013.4 606ZM1021.8 606.2L1021.8 606.2Q1020.2 606.2 1019.1 605.6Q1017.9 605.0 1017.3 603.9Q1016.6 602.7 1016.6 601.2L1016.6 601.2L1016.6 597.6Q1016.6 596.1 1017.3 594.9Q1017.9 593.8 1019.1 593.2Q1020.2 592.6 1021.8 592.6Q1023.4 592.6 1024.5 593.2Q1025.7 593.8 1026.3 594.9Q1027.0 596.1 1027.0 597.6L1027.0 597.6L1027.0 599.9L1018.8 599.9L1018.8 601.2Q1018.8 602.8 1019.5 603.6Q1020.3 604.4 1021.8 604.4L1021.8 604.4Q1023.0 604.4 1023.8 604.0Q1024.6 603.5 1024.8 602.6L1024.8 602.6L1026.9 602.6Q1026.7 604.3 1025.3 605.3Q1023.9 606.2 1021.8 606.2ZM1018.8 598.3L1024.8 598.3L1024.8 597.6Q1024.8 596.0 1024.1 595.2Q1023.3 594.4 1021.8 594.4L1021.8 594.4Q1020.3 594.4 1019.5 595.2Q1018.8 596.0 1018.8 597.6L1018.8 597.6L1018.8 598.3ZM1041.2 606L1037.6 606Q1035.9 606 1035.0 605.1Q1034.0 604.2 1034.0 602.5L1034.0 602.5L1034.0 594.8L1030.3 594.8L1030.3 592.8L1034.0 592.8L1034.0 589.1L1036.2 589.1L1036.2 592.8L1041.5 592.8L1041.5 594.8L1036.2 594.8L1036.2 602.5Q1036.2 604.0 1037.6 604.0L1037.6 604.0L1041.2 604.0L1041.2 606Z M1070.0 606L1066.4 606Q1064.7 606 1063.8 605.1Q1062.8 604.2 1062.8 602.5L1062.8 602.5L1062.8 594.8L1059.1 594.8L1059.1 592.8L1062.8 592.8L1062.8 589.1L1065 589.1L1065 592.8L1070.3 592.8L1070.3 594.8L1065 594.8L1065 602.5Q1065 604.0 1066.4 604.0L1066.4 604.0L1070.0 604.0L1070.0 606ZM1076.6 606L1074.4 606L1074.4 588.5L1076.6 588.5L1076.6 595.3L1076.6 595.3Q1076.7 594.1 1077.5 593.4L1077.5 593.4Q1078.4 592.6 1080.1 592.6L1080.1 592.6Q1082.1 592.6 1083.3 593.8Q1084.4 595.0 1084.4 597.1L1084.4 597.1L1084.4 606L1082.3 606L1082.3 597.4Q1082.3 595.9 1081.5 595.2Q1080.8 594.4 1079.5 594.4L1079.5 594.4Q1078.1 594.4 1077.3 595.2Q1076.6 596.1 1076.6 597.6L1076.6 597.6L1076.6 606ZM1091.4 606L1089.3 606L1089.3 592.8L1091.4 592.8L1091.4 595.2Q1091.6 594.2 1092.1 593.6L1092.1 593.6Q1093.0 592.6 1094.9 592.6L1094.9 592.6Q1096.9 592.6 1098.2 593.9Q1099.4 595.2 1099.4 597.4L1099.4 597.4L1099.4 598.2L1097.3 598.2L1097.3 597.6Q1097.3 596.0 1096.5 595.2Q1095.7 594.4 1094.4 594.4L1094.4 594.4Q1093.0 594.4 1092.2 595.2Q1091.4 596.1 1091.4 597.6L1091.4 597.6L1091.4 606ZM1108.2 606.2L1108.2 606.2Q1106.6 606.2 1105.5 605.6Q1104.3 605.0 1103.7 603.9Q1103.0 602.7 1103.0 601.2L1103.0 601.2L1103.0 597.6Q1103.0 596.1 1103.7 594.9Q1104.3 593.8 1105.5 593.2Q1106.6 592.6 1108.2 592.6Q1109.8 592.6 1110.9 593.2Q1112.1 593.8 1112.7 594.9Q1113.4 596.1 1113.4 597.6L1113.4 597.6L1113.4 599.9L1105.2 599.9L1105.2 601.2Q1105.2 602.8 1105.9 603.6Q1106.7 604.4 1108.2 604.4L1108.2 604.4Q1109.4 604.4 1110.2 604.0Q1111.0 603.5 1111.2 602.6L1111.2 602.6L1113.3 602.6Q1113.1 604.3 1111.7 605.3Q1110.3 606.2 1108.2 606.2ZM1105.2 598.3L1111.2 598.3L1111.2 597.6Q1111.2 596.0 1110.5 595.2Q1109.7 594.4 1108.2 594.4L1108.2 594.4Q1106.7 594.4 1105.9 595.2Q1105.2 596.0 1105.2 597.6L1105.2 597.6L1105.2 598.3ZM1122.6 606.2L1122.6 606.2Q1121.0 606.2 1119.9 605.6Q1118.7 605.0 1118.1 603.9Q1117.4 602.7 1117.4 601.2L1117.4 601.2L1117.4 597.6Q1117.4 596.1 1118.1 594.9Q1118.7 593.8 1119.9 593.2Q1121.0 592.6 1122.6 592.6Q1124.2 592.6 1125.3 593.2Q1126.5 593.8 1127.1 594.9Q1127.8 596.1 1127.8 597.6L1127.8 597.6L1127.8 599.9L1119.6 599.9L1119.6 601.2Q1119.6 602.8 1120.3 603.6Q1121.1 604.4 1122.6 604.4L1122.6 604.4Q1123.8 604.4 1124.6 604.0Q1125.4 603.5 1125.6 602.6L1125.6 602.6L1127.7 602.6Q1127.5 604.3 1126.1 605.3Q1124.7 606.2 1122.6 606.2ZM1119.6 598.3L1125.6 598.3L1125.6 597.6Q1125.6 596.0 1124.9 595.2Q1124.1 594.4 1122.6 594.4L1122.6 594.4Q1121.1 594.4 1120.3 595.2Q1119.6 596.0 1119.6 597.6L1119.6 597.6L1119.6 598.3Z "/></g><defs><clipPath id="satori_bc-id-2" clip-path="url(#satori_cp-id)"><rect x="100" y="1275" width="920" height="39"/></clipPath></defs><mask id="satori_om-id-2"><rect x="100" y="1276" width="920" height="38" fill="#fff" mask="url(#satori_om-id)"/><path width="920" height="39" fill="none" stroke="#000" stroke-width="2" d="M100,1275 A0,0 0 0 1 100,1275 h920 A0,0 0 0 1 1020,1275"/></mask><path width="920" height="39" clip-path="url(#satori_bc-id-2)" fill="none" stroke="#000000" stroke-width="2" d="M100,1275 A0,0 0 0 1 100,1275 h920 A0,0 0 0 1 1020,1275"/><mask id="satori_om-id-2-0"><rect x="100" y="1288" width="109" height="26" fill="#fff" mask="url(#satori_om-id)"/></mask><clipPath id="satori_cp-id-2-0-0" clip-path="url(#satori_cp-id)"><rect x="100" y="1294" width="14" height="14"/></clipPath><mask id="satori_om-id-2-0-0"><rect x="100" y="1294" width="14" height="14" fill="#fff" mask="url(#satori_om-id)"/></mask><image x="100" y="1294" width="14" height="14" href="data:image/svg+xml;utf8,%3Csvg  fill=%22none%22 xmlns=%22http://www.w3.org/2000/svg%22 width=%2214%22 height=%2214%22 viewBox=%220 0 14 14%22%3E%3Ccircle cx=%227%22 cy=%227%22 r=%226%22 stroke=%22%23000000%22 stroke-width=%221%22%3E%3C/circle%3E%3Ccircle cx=%227%22 cy=%227%22 r=%222%22 fill=%22%23000000%22%3E%3C/circle%3E%3C/svg%3E" preserveAspectRatio="none" clip-path="url(#satori_cp-id-2-0-0)" mask="url(#satori_om-id-2-0-0)"/><mask id="satori_om-id-2-0-0-0"><rect x="100" y="1294" width="0" height="14" fill="#fff" mask="url(#satori_om-id)"/></mask><mask id="satori_om-id-2-0-0-1"><rect x="100" y="1294" width="0" height="14" fill="#fff" mask="url(#satori_om-id)"/></mask><defs><clipPath id="satori_bc-id-2-0-1" clip-path="url(#satori_cp-id)"><rect x="122" y="1288" width="87" height="26"/></clipPath></defs><mask id="satori_om-id-2-0-1"><rect x="123" y="1289" width="85" height="24" fill="#fff" mask="url(#satori_om-id)"/><path width="87" height="26" fill="none" stroke="#000" stroke-width="2" d="M122,1288 A0,0 0 0 1 122,1288 h87 a0,0 0 0 1 0,0 v26 a0,0 0 0 1 0,0 h-87 a0,0 0 0 1 0,0 v-26 A0,0 0 0 1 122,1288"/></mask><rect x="122" y="1288" width="87" height="26" fill="#ffffff" clip-path="url(#satori_cp-id)" mask="url(#satori_om-id)"/><path width="87" height="26" clip-path="url(#satori_bc-id-2-0-1)" fill="none" stroke="#000000" stroke-width="2" d="M122,1288 A0,0 0 0 1 122,1288 h87 a0,0 0 0 1 0,0 v26 a0,0 0 0 1 0,0 h-87 a0,0 0 0 1 0,0 v-26 A0,0 0 0 1 122,1288"/><g mask="url(#satori_om-id)" clip-path="url(#satori_cp-id)"><path fill="#333333" d="M137.7 1307.2L136.9 1307.2Q135.9 1307.2 135.1 1306.7Q134.4 1306.3 134.0 1305.5Q133.5 1304.7 133.5 1303.7L133.5 1303.7L133.5 1299.6Q133.5 1298.5 133.9 1297.7Q134.3 1297.0 135.0 1296.5Q135.8 1296.1 136.8 1296.1L136.8 1296.1Q137.7 1296.1 138.4 1296.5Q139.0 1296.8 139.4 1297.5Q139.7 1298.1 139.7 1299.1L139.7 1299.1L139.7 1304.2L138.9 1304.2L138.9 1303.6L138.7 1303.6Q138.7 1303.9 138.4 1304.1L138.4 1304.1Q138.1 1304.3 137.5 1304.3L137.5 1304.3Q136.7 1304.3 136.3 1303.9Q135.9 1303.4 135.9 1302.5L135.9 1302.5L135.9 1301.0Q135.9 1300.1 136.3 1299.7Q136.7 1299.2 137.5 1299.2L137.5 1299.2Q138.1 1299.2 138.4 1299.5L138.4 1299.5Q138.7 1299.7 138.7 1300.0L138.7 1300.0L138.9 1300.0L138.8 1299.1L138.8 1299.1Q138.8 1298.4 138.5 1297.9Q138.3 1297.4 137.9 1297.2Q137.4 1297.0 136.8 1297.0L136.8 1297.0Q135.7 1297.0 135.1 1297.7Q134.5 1298.4 134.5 1299.6L134.5 1299.6L134.5 1303.7Q134.5 1304.9 135.1 1305.6Q135.8 1306.3 136.9 1306.3L136.9 1306.3L137.7 1306.3L137.7 1307.2ZM137.8 1303.6L137.8 1303.6Q138.3 1303.6 138.5 1303.3Q138.8 1303.0 138.8 1302.4L138.8 1302.4L138.8 1301.0Q138.8 1300.5 138.5 1300.2Q138.3 1299.9 137.8 1299.9L137.8 1299.9Q137.3 1299.9 137.1 1300.2Q136.8 1300.5 136.8 1301.0L136.8 1301.0L136.8 1302.5Q136.8 1303.0 137.1 1303.3Q137.3 1303.6 137.8 1303.6ZM146.3 1305L144.5 1305Q143.7 1305 143.2 1304.5Q142.7 1304.1 142.7 1303.3L142.7 1303.3L142.7 1299.4L140.9 1299.4L140.9 1298.4L142.7 1298.4L142.7 1296.5L143.8 1296.5L143.8 1298.4L146.4 1298.4L146.4 1299.4L143.8 1299.4L143.8 1303.3Q143.8 1304.0 144.5 1304.0L144.5 1304.0L146.3 1304.0L146.3 1305ZM151.0 1305.1L151.0 1305.1Q150.2 1305.1 149.6 1304.8Q149.1 1304.5 148.7 1303.9Q148.4 1303.4 148.4 1302.6L148.4 1302.6L148.4 1300.8Q148.4 1300.0 148.7 1299.5Q149.1 1298.9 149.6 1298.6Q150.2 1298.3 151.0 1298.3Q151.8 1298.3 152.4 1298.6Q152.9 1298.9 153.3 1299.5Q153.6 1300.0 153.6 1300.8L153.6 1300.8L153.6 1302.0L149.5 1302.0L149.5 1302.6Q149.5 1303.4 149.9 1303.8Q150.3 1304.2 151.0 1304.2L151.0 1304.2Q151.6 1304.2 152.0 1304.0Q152.4 1303.8 152.5 1303.3L152.5 1303.3L153.6 1303.3Q153.4 1304.1 152.7 1304.6Q152.0 1305.1 151.0 1305.1ZM149.5 1301.1L152.5 1301.1L152.5 1300.8Q152.5 1300.0 152.1 1299.6Q151.7 1299.2 151.0 1299.2L151.0 1299.2Q150.3 1299.2 149.9 1299.6Q149.5 1300.0 149.5 1300.8L149.5 1300.8L149.5 1301.1ZM158.5 1305.1L158.0 1305.1Q157.3 1305.1 156.8 1304.9Q156.3 1304.7 156.0 1304.3Q155.7 1303.9 155.7 1303.4L155.7 1303.4L156.8 1303.4Q156.8 1303.7 157.1 1303.9Q157.5 1304.1 158.0 1304.1L158.0 1304.1L158.5 1304.1Q159.1 1304.1 159.4 1303.9Q159.8 1303.6 159.8 1303.2L159.8 1303.2Q159.8 1302.8 159.5 1302.5Q159.2 1302.3 158.6 1302.2L158.6 1302.2L157.8 1302.0Q156.8 1301.9 156.3 1301.4Q155.8 1301.0 155.8 1300.2L155.8 1300.2Q155.8 1299.3 156.4 1298.8Q157.0 1298.3 158.1 1298.3L158.1 1298.3L158.5 1298.3Q159.5 1298.3 160.1 1298.7Q160.6 1299.2 160.8 1299.9L160.8 1299.9L159.7 1299.9Q159.6 1299.6 159.3 1299.5Q159.0 1299.3 158.5 1299.3L158.5 1299.3L158.1 1299.3Q157.5 1299.3 157.2 1299.5Q156.9 1299.7 156.9 1300.2L156.9 1300.2Q156.9 1300.6 157.2 1300.8Q157.4 1301.0 157.9 1301.1L157.9 1301.1L158.8 1301.2Q159.9 1301.4 160.4 1301.8Q160.8 1302.3 160.8 1303.1L160.8 1303.1Q160.8 1304.1 160.3 1304.6Q159.7 1305.1 158.5 1305.1L158.5 1305.1ZM167.9 1305L166.1 1305Q165.3 1305 164.8 1304.5Q164.3 1304.1 164.3 1303.3L164.3 1303.3L164.3 1299.4L162.5 1299.4L162.5 1298.4L164.3 1298.4L164.3 1296.5L165.4 1296.5L165.4 1298.4L168.0 1298.4L168.0 1299.4L165.4 1299.4L165.4 1303.3Q165.4 1304.0 166.1 1304.0L166.1 1304.0L167.9 1304.0L167.9 1305ZM172.6 1305.1L172.6 1305.1Q171.4 1305.1 170.8 1304.4Q170.1 1303.8 170.1 1302.6L170.1 1302.6L170.1 1298.4L171.2 1298.4L171.2 1302.6Q171.2 1303.3 171.5 1303.8Q171.9 1304.2 172.6 1304.2L172.6 1304.2Q173.3 1304.2 173.6 1303.8Q174.0 1303.3 174.0 1302.6L174.0 1302.6L174.0 1298.4L175.1 1298.4L175.1 1302.6Q175.1 1303.8 174.4 1304.4Q173.7 1305.1 172.6 1305.1ZM180.1 1305.1L179.6 1305.1Q178.9 1305.1 178.4 1304.9Q177.9 1304.7 177.6 1304.3Q177.3 1303.9 177.3 1303.4L177.3 1303.4L178.4 1303.4Q178.4 1303.7 178.7 1303.9Q179.1 1304.1 179.6 1304.1L179.6 1304.1L180.1 1304.1Q180.7 1304.1 181.0 1303.9Q181.4 1303.6 181.4 1303.2L181.4 1303.2Q181.4 1302.8 181.1 1302.5Q180.8 1302.3 180.2 1302.2L180.2 1302.2L179.4 1302.0Q178.4 1301.9 177.9 1301.4Q177.4 1301.0 177.4 1300.2L177.4 1300.2Q177.4 1299.3 178.0 1298.8Q178.6 1298.3 179.7 1298.3L179.7 1298.3L180.1 1298.3Q181.1 1298.3 181.7 1298.7Q182.2 1299.2 182.4 1299.9L182.4 1299.9L181.3 1299.9Q181.2 1299.6 180.9 1299.5Q180.6 1299.3 180.1 1299.3L180.1 1299.3L179.7 1299.3Q179.1 1299.3 178.8 1299.5Q178.5 1299.7 178.5 1300.2L178.5 1300.2Q178.5 1300.6 178.8 1300.8Q179.0 1301.0 179.5 1301.1L179.5 1301.1L180.4 1301.2Q181.5 1301.4 182.0 1301.8Q182.4 1302.3 182.4 1303.1L182.4 1303.1Q182.4 1304.1 181.9 1304.6Q181.3 1305.1 180.1 1305.1L180.1 1305.1ZM187.0 1305.1L187.0 1305.1Q186.2 1305.1 185.6 1304.8Q185.1 1304.5 184.7 1303.9Q184.4 1303.4 184.4 1302.6L184.4 1302.6L184.4 1300.8Q184.4 1300.0 184.7 1299.5Q185.1 1298.9 185.6 1298.6Q186.2 1298.3 187.0 1298.3Q187.8 1298.3 188.4 1298.6Q188.9 1298.9 189.3 1299.5Q189.6 1300.0 189.6 1300.8L189.6 1300.8L189.6 1302.0L185.5 1302.0L185.5 1302.6Q185.5 1303.4 185.9 1303.8Q186.3 1304.2 187.0 1304.2L187.0 1304.2Q187.6 1304.2 188.0 1304.0Q188.4 1303.8 188.5 1303.3L188.5 1303.3L189.6 1303.3Q189.4 1304.1 188.7 1304.6Q188.0 1305.1 187.0 1305.1ZM185.5 1301.1L188.5 1301.1L188.5 1300.8Q188.5 1300.0 188.1 1299.6Q187.7 1299.2 187.0 1299.2L187.0 1299.2Q186.3 1299.2 185.9 1299.6Q185.5 1300.0 185.5 1300.8L185.5 1300.8L185.5 1301.1ZM193.0 1305L191.9 1305L191.9 1298.4L193.0 1298.4L193.0 1299.6Q193.1 1299.1 193.4 1298.8L193.4 1298.8Q193.8 1298.3 194.7 1298.3L194.7 1298.3Q195.8 1298.3 196.4 1298.9Q197.0 1299.6 197.0 1300.7L197.0 1300.7L197.0 1301.1L195.9 1301.1L195.9 1300.8Q195.9 1300.0 195.5 1299.6Q195.2 1299.2 194.5 1299.2L194.5 1299.2Q193.8 1299.2 193.4 1299.6Q193.0 1300.0 193.0 1300.8L193.0 1300.8L193.0 1305Z "/></g><mask id="satori_om-id-2-1"><rect x="971" y="1293" width="49" height="16" fill="#fff" mask="url(#satori_om-id)"/></mask><clipPath id="satori_cp-id-2-1-0" clip-path="url(#satori_cp-id)"><rect x="971" y="1293" width="16" height="16"/></clipPath><mask id="satori_om-id-2-1-0"><rect x="971" y="1293" width="16" height="16" fill="#fff" mask="url(#satori_om-id)"/></mask><image x="971" y="1293" width="16" height="16" href="data:image/svg+xml;utf8,%3Csvg  fill=%22none%22 xmlns=%22http://www.w3.org/2000/svg%22 width=%2216%22 height=%2216%22 viewBox=%220 0 16 16%22%3E%3Cpath d=%22M8 2 L14 8 L8 14%22 stroke=%22%23000000%22 stroke-width=%221.5%22 stroke-linecap=%22round%22 stroke-linejoin=%22round%22%3E%3C/path%3E%3Cline x1=%2214%22 y1=%228%22 x2=%222%22 y2=%228%22 stroke=%22%23000000%22 stroke-width=%221.5%22 stroke-linecap=%22round%22%3E%3C/line%3E%3C/svg%3E" preserveAspectRatio="none" clip-path="url(#satori_cp-id-2-1-0)" mask="url(#satori_om-id-2-1-0)"/><mask id="satori_om-id-2-1-0-0"><rect x="971" y="1293" width="0" height="16" fill="#fff" mask="url(#satori_om-id)"/></mask><mask id="satori_om-id-2-1-0-1"><rect x="971" y="1293" width="0" height="16" fill="#fff" mask="url(#satori_om-id)"/></mask><mask id="satori_om-id-2-1-1"><rect x="993" y="1294" width="27" height="15" fill="#fff" mask="url(#satori_om-id)"/></mask><g mask="url(#satori_om-id)" clip-path="url(#satori_cp-id)"><path fill="#333333" d="M995.0 1305L993.8 1305L993.8 1297.0L995.5 1297.0L997.7 1303.5Q997.7 1303.1 997.6 1302.6Q997.6 1302.2 997.6 1301.7Q997.6 1301.2 997.6 1300.8L997.6 1300.8L997.6 1297.0L998.8 1297.0L998.8 1305L997.1 1305L994.9 1298.5Q994.9 1298.8 995.0 1299.3Q995.0 1299.7 995.0 1300.2Q995.0 1300.7 995.0 1301.1L995.0 1301.1L995.0 1305ZM1005.4 1305L1000.6 1305L1000.6 1297.0L1005.4 1297.0L1005.4 1298.2L1001.9 1298.2L1001.9 1300.3L1005.0 1300.3L1005.0 1301.4L1001.9 1301.4L1001.9 1303.8L1005.4 1303.8L1005.4 1305ZM1008.0 1305L1006.5 1305L1008.7 1300.9L1006.6 1297.0L1008.2 1297.0L1009.2 1299.0Q1009.3 1299.2 1009.4 1299.4Q1009.5 1299.6 1009.5 1299.7L1009.5 1299.7Q1009.6 1299.6 1009.6 1299.4Q1009.7 1299.2 1009.8 1299.0L1009.8 1299.0L1010.9 1297.0L1012.4 1297.0L1010.3 1300.9L1012.5 1305L1011.0 1305L1009.8 1302.8Q1009.7 1302.6 1009.6 1302.3Q1009.5 1302.1 1009.5 1302.0L1009.5 1302.0Q1009.4 1302.1 1009.3 1302.3Q1009.3 1302.6 1009.1 1302.8L1009.1 1302.8L1008.0 1305ZM1016.8 1305L1015.4 1305L1015.4 1298.2L1013.3 1298.2L1013.3 1297.0L1018.9 1297.0L1018.9 1298.2L1016.8 1298.2L1016.8 1305Z "/></g></svg>